<svg xmlns="http://www.w3.org/2000/svg" xmlns:xlink="http://www.w3.org/1999/xlink" width="135px" height="36px" viewBox="0 0 135 36"><title>Group 20</title><g id="Symbols" stroke="none" stroke-width="1" fill="none" fill-rule="evenodd"><g id="Group-20" fill="#272727"><path d="M13.0970149,13.0727472 L13.0970149,17.7221424 C12.2606,16.7475244 11.5111929,16.0791584 10.8490527,15.7160557 C10.1975295,15.3430659 9.43180842,15.1564475 8.5521485,15.1564475 C7.17297019,15.1564475 6.02736658,15.6179265 5.11507871,16.5401431 C4.20279084,17.4631011 3.74677638,18.6186526 3.74677638,20.0077861 C3.74677638,21.4280638 4.18647686,22.5942439 5.06613678,23.5063262 C5.95641373,24.4184085 7.09140031,24.8744496 8.47057863,24.8744496 C9.35023855,24.8744496 10.1265766,24.6932691 10.8001108,24.3304136 C11.451634,23.9779395 12.217355,23.2940013 13.0970149,22.2776104 L13.0970149,26.8958613 C11.6090768,27.6317066 10.1213976,28 8.63371838,28 C6.17911245,28 4.12665895,27.2433919 2.47609895,25.7296813 C0.82528,24.2058365 0,22.3144398 0,20.0542553 C0,17.7948124 0.836155984,15.8873492 2.5087269,14.3323601 C4.18077992,12.777371 6.23349236,12 8.66608738,12 C10.2298985,12 11.7067017,12.3576648 13.0970149,13.0727472" id="Fill-1"></path><polygon id="Fill-4" points="21.3847904 24.6540888 14.1044776 12 18.4428602 12 23.3961047 20.936297 28.0169485 12 32.238806 12 19.3404475 36 15.0686507 36"></polygon><path d="M46.6281258,19.7156189 C46.6281258,18.1936487 46.2155511,16.9545042 45.3906605,15.9976669 C44.5546402,15.0190538 43.5074148,14.5298769 42.2482077,14.5298769 C40.9022927,14.5298769 39.8061485,15.002722 38.9592573,15.9486714 C38.1234959,16.883733 37.7054857,18.1011017 37.7054857,19.6018146 C37.7054857,21.1455606 38.1180604,22.3792612 38.9432099,23.3034349 C39.7678416,24.2491251 40.8533739,24.7219702 42.1995477,24.7219702 C43.4693668,24.7219702 44.5222864,24.2491251 45.3580479,23.3034349 C46.204939,22.3468568 46.6281258,21.1507453 46.6281258,19.7156189 L46.6281258,19.7156189 Z M37.9172085,0 L37.9172085,13.5025275 C39.3827029,11.9805574 41.043355,11.2197019 42.8996824,11.2197019 C45.0378754,11.2197019 46.817848,12.0186649 48.2401179,13.6168503 C49.66187,15.204407 50.3731343,17.1826312 50.3731343,19.5525599 C50.3731343,21.9987038 49.6566934,24.0207388 48.2238116,25.6189242 C46.8015418,27.2064809 45.0052629,28 42.8344572,28 C40.9998715,28 39.3607023,27.2930655 37.9172085,25.8799741 L37.9172085,27.5432275 L34.2537313,27.5432275 L34.2537313,0 L37.9172085,0 Z" id="Fill-7"></path><path d="M64.6573697,17.9552301 C64.1544629,16.0892926 62.940805,15.1564475 61.015631,15.1564475 C60.5769902,15.1564475 60.1653819,15.2212078 59.7802961,15.3509756 C59.3954653,15.4804962 59.0450628,15.6671147 58.7295984,15.9105838 C58.4141341,16.1543001 58.144064,16.4467102 57.9193881,16.7890501 C57.6949672,17.1311427 57.5235913,17.5199518 57.4060253,17.9552301 L64.6573697,17.9552301 Z M68.3631193,20.8163013 L57.165538,20.8163013 C57.2616819,22.0600949 57.6789007,23.0500378 58.4166843,23.7861303 C59.154723,24.5118413 60.101371,24.8744496 61.2563734,24.8744496 C62.1548219,24.8744496 62.897961,24.6673155 63.4863008,24.2528 C64.0636744,23.8380374 64.7213806,23.0708007 65.4594192,21.9513371 L68.5074627,23.5995118 C68.0366889,24.3766356 67.5393927,25.0430242 67.015574,25.5976889 C66.4915002,26.1521064 65.929938,26.6081476 65.3311423,26.9658124 C64.7320916,27.3234772 64.0850964,27.5852374 63.3899018,27.751093 C62.6947071,27.9169486 61.940602,28 61.1280965,28 C58.7964146,28 56.9247956,27.274289 55.5132393,25.8231141 C54.101173,24.3613107 53.3955224,22.4229504 53.3955224,20.0077861 C53.3955224,17.6131374 54.079751,15.6747772 55.4489733,14.1922108 C56.8286516,12.7309017 58.6574267,12 60.9355536,12 C63.2348474,12 65.0529114,12.7101389 66.3900008,14.1299223 C67.7158691,15.5400658 68.3791858,17.4939982 68.3791858,19.9922139 L68.3631193,20.8163013 Z" id="Fill-10"></path><path d="M72.5373134,12.4314504 L76.0959037,12.4314504 L76.0959037,13.8221029 C76.7495941,13.1294446 77.3296187,12.6553066 77.8357259,12.3994346 C78.3521414,12.1331449 78.9638448,12 79.6703333,12 C80.6086305,12 81.5891662,12.3092315 82.6119403,12.9269323 L80.982994,16.2197272 C80.3081843,15.7295812 79.6489626,15.4843812 79.0060832,15.4843812 C77.0658797,15.4843812 76.0959037,16.965745 76.0959037,19.9279646 L76.0959037,28 L72.5373134,28 L72.5373134,12.4314504 Z" id="Fill-12"></path><polygon id="Fill-14" points="90.7184226 24.5175042 99.9342942 24.5175042 99.9342942 28 83.619403 28 93.6631899 15.4495928 85.7521959 15.4495928 85.7521959 12 100.746269 12"></polygon><path d="M104.236314,28 L107.330851,28 L107.330851,12.0222074 L104.236314,12.0222074 L104.236314,28 Z M103.768657,5.37850609 C103.768657,4.73335489 103.965864,4.17582326 104.360279,3.70538965 C104.754256,3.23521681 105.226504,3 105.776804,3 C106.33585,3 106.812689,3.23521681 107.207104,3.70538965 C107.6013,4.16487081 107.798507,4.72813944 107.798507,5.39519553 C107.798507,6.06225161 107.6013,6.63099646 107.207104,7.1011693 C106.821872,7.57134214 106.349624,7.80655895 105.790578,7.80655895 C105.231095,7.80655895 104.754256,7.57134214 104.360279,7.1011693 C103.965864,6.63099646 103.768657,6.05703616 103.768657,5.37850609 L103.768657,5.37850609 Z" id="Fill-16"></path><polygon id="Fill-18" points="116.811773 19.3429737 111.15488 12 115.486513 12 118.993904 16.6652522 122.565786 12 127.026657 12 121.208153 19.3429737 127.947761 28 123.616128 28 118.993904 22.0204341 114.258116 28 109.813433 28"></polygon><path d="M130.970149,25.9854766 C130.970149,25.4484533 131.167655,24.9832466 131.564279,24.5898565 C131.960443,24.1969238 132.434502,24 132.984844,24 C133.535878,24 134.009476,24.1969238 134.40587,24.5898565 C134.802034,24.9832466 135,25.4532563 135,25.9998856 C135,26.5563497 134.802034,27.0311624 134.40587,27.4243239 C134.019156,27.8078792 133.545327,28 132.984844,28 C132.414682,28 131.936014,27.8078792 131.549991,27.4243239 C131.163276,27.0407685 130.970149,26.5611527 130.970149,25.9854766" id="Fill-19"></path></g></g></svg>