<svg xmlns="http://www.w3.org/2000/svg" xmlns:xlink="http://www.w3.org/1999/xlink" width="287px" height="40px" viewBox="0 0 287 40"><title>Group 2</title><defs><path d="M12.5,0 C5.59657534,0 0,5.59623288 0,12.5 L0,12.5 C0,19.4034247 5.59657534,25 12.5,25 L12.5,25 C19.4037671,25 25,19.4034247 25,12.5 L25,12.5 C25,5.59623288 19.4037671,0 12.5,0 Z" id="path-1"></path><linearGradient x1="0%" y1="50%" x2="100%" y2="50%" id="linearGradient-3"><stop stop-color="#14FFE6" offset="0%"></stop><stop stop-color="#021C4B" offset="100%"></stop></linearGradient></defs><g id="Symbols" stroke="none" stroke-width="1" fill="none" fill-rule="evenodd"><g id="Group-2"><path d="M25,28.3828826 C25,29.7634484 23.8808643,30.8828826 22.5,30.8828826 C21.1194342,30.8828826 20,29.7634484 20,28.3828826 C20,27.0020183 21.1194342,25.8828826 22.5,25.8828826 C23.8808643,25.8828826 25,27.0020183 25,28.3828826" id="Fill-21" fill="#FFFFFF"></path><g id="Group-3" transform="translate(0.000000, 8.882883)"><mask id="mask-2" fill="white"><use xlink:href="#path-1"></use></mask><g id="Clip-2"></g><path d="M12.5,0 C5.59657534,0 0,5.59623288 0,12.5 L0,12.5 C0,19.4034247 5.59657534,25 12.5,25 L12.5,25 C19.4037671,25 25,19.4034247 25,12.5 L25,12.5 C25,5.59623288 19.4037671,0 12.5,0 Z" id="Fill-1" fill="url(#linearGradient-3)" mask="url(#mask-2)"></path></g><path d="M50.8755,14.255028 L50.8755,19.385028 C49.9255,18.3096644 49.0743235,17.5722098 48.3222647,17.1715735 C47.5822647,16.760028 46.7125588,16.5541189 45.7134412,16.5541189 C44.1469706,16.5541189 42.8457941,17.0633008 41.8096176,18.0808462 C40.7734412,19.0992098 40.2555,20.3742098 40.2555,21.9069371 C40.2555,23.474028 40.7549118,24.7607553 41.7540294,25.7671189 C42.7652059,26.7734826 44.0543235,27.2766644 45.6207941,27.2766644 C46.6199118,27.2766644 47.5016765,27.0767553 48.2666765,26.6763917 C49.0066765,26.2874826 49.8763824,25.5328462 50.8755,24.4113917 L50.8755,29.507028 C49.1855,30.3189371 47.4957941,30.7253008 45.8060882,30.7253008 C43.0181471,30.7253008 40.6869706,29.8904826 38.8122647,28.2203008 C36.9372647,26.5389371 35.9999118,24.452028 35.9999118,21.9582098 C35.9999118,19.4652098 36.9496176,17.3605735 38.8493235,15.6448462 C40.7484412,13.9291189 43.0799118,13.0713917 45.8428529,13.0713917 C47.6190294,13.0713917 49.2963824,13.466028 50.8755,14.255028" id="Fill-1" fill="#250844"></path><polygon id="Fill-4" fill="#250844" points="59.0004638 27.171112 51.014087 12.9935541 55.7732174 12.9935541 61.2068406 23.0057226 66.2758261 12.9935541 70.9071304 12.9935541 56.7578551 39.8829963 52.0717681 39.8829963"></polygon><path d="M87.7465143,21.6297523 C87.7465143,19.9600183 87.2910857,18.6005688 86.3805143,17.5508349 C85.4576571,16.477211 84.3016571,15.9405413 82.9116571,15.9405413 C81.4259429,15.9405413 80.2159429,16.4592936 79.2810857,17.4970826 C78.3585143,18.5229266 77.8970857,19.8584862 77.8970857,21.5048991 C77.8970857,23.1985229 78.3525143,24.552 79.2633714,25.5658991 C80.1736571,26.6034037 81.3719429,27.122156 82.8579429,27.122156 C84.2596571,27.122156 85.4219429,26.6034037 86.3445143,25.5658991 C87.2793714,24.5164495 87.7465143,23.204211 87.7465143,21.6297523 L87.7465143,21.6297523 Z M78.1308,5.15143483e-14 L78.1308,14.8134495 C79.7485143,13.1437156 81.5816571,12.3089908 83.6308,12.3089908 C85.9910857,12.3089908 87.9559429,13.1855229 89.5259429,14.9388716 C91.0953714,16.6805596 91.8805143,18.850844 91.8805143,21.4508624 C91.8805143,24.1344954 91.0896571,26.352844 89.5079429,28.1061927 C87.9379429,29.8478807 85.9550857,30.7184404 83.5588,30.7184404 C81.5336571,30.7184404 79.7242286,29.9428716 78.1308,28.3925872 L78.1308,30.2173211 L74.0868,30.2173211 L74.0868,5.15143483e-14 L78.1308,5.15143483e-14 Z" id="Fill-7" fill="#250844"></path><path d="M107.668883,19.5825164 C107.103144,17.4833368 105.737854,16.433886 103.572152,16.433886 C103.078708,16.433886 102.615674,16.5067413 102.182476,16.6527301 C101.749565,16.7984408 101.355384,17.0083866 101.000506,17.2822893 C100.645628,17.5564702 100.341816,17.8854316 100.08907,18.2705639 C99.83661,18.6554181 99.6438227,19.0928283 99.5115683,19.5825164 L107.668883,19.5825164 Z M111.837623,22.8012215 L99.2410348,22.8012215 C99.3491908,24.2004893 99.8185362,25.3141751 100.648497,26.1422791 C101.478745,26.958704 102.543666,27.3666384 103.842972,27.3666384 C104.853671,27.3666384 105.689657,27.1336125 106.351503,26.6672826 C107.001013,26.2006747 107.740891,25.3375334 108.571139,24.0781368 L112,25.9323334 C111.470409,26.8065976 110.910981,27.5562848 110.321717,28.1802826 C109.732167,28.8040023 109.100444,29.3170486 108.426836,29.7194215 C107.752941,30.1217944 107.025111,30.4162746 106.24306,30.6028622 C105.461009,30.7894497 104.612687,30.8828826 103.698669,30.8828826 C101.07567,30.8828826 98.9702145,30.0664577 97.3823008,28.433886 C95.7938134,26.7893571 95,24.6087017 95,21.8916419 C95,19.1976622 95.769715,17.0170069 97.3100056,15.3491198 C98.8620585,13.705147 100.919318,12.8828826 103.48207,12.8828826 C106.068633,12.8828826 108.113843,13.6817888 109.617986,15.2790451 C111.109506,16.8654566 111.855696,19.0636306 111.855696,21.8741232 L111.837623,22.8012215 Z" id="Fill-10" fill="#250844"></path><path d="M116,13.3682643 L119.885453,13.3682643 L119.885453,14.9327484 C120.599186,14.1535078 121.232487,13.6201025 121.785081,13.3322465 C122.348931,13.0326706 123.01682,12.8828826 123.788201,12.8828826 C124.812682,12.8828826 125.883282,13.230768 127,13.9256814 L125.221432,17.6300756 C124.48464,17.0786614 123.764867,16.8028114 123.062938,16.8028114 C120.944523,16.8028114 119.885453,18.4693457 119.885453,21.8018427 L119.885453,30.8828826 L116,30.8828826 L116,13.3682643 Z" id="Fill-12" fill="#250844"></path><polygon id="Fill-14" fill="#250844" points="135.875427 26.9650748 146.099221 26.9650748 146.099221 30.8828826 128 30.8828826 139.142258 16.7636745 130.366053 16.7636745 130.366053 12.8828826 147 12.8828826"></polygon><path d="M150.580241,31.8828826 L154.419759,31.8828826 L154.419759,14.6268665 L150.580241,14.6268665 L150.580241,31.8828826 Z M150,7.45166914 C150,6.75490585 150.244683,6.15277169 150.734049,5.64470339 C151.222873,5.13691672 151.808811,4.88288257 152.491591,4.88288257 C153.185221,4.88288257 153.776855,5.13691672 154.266222,5.64470339 C154.755317,6.14094305 155,6.74927316 155,7.46969374 C155,8.19011431 154.755317,8.80435875 154.266222,9.31214542 C153.788249,9.81993208 153.202311,10.0739662 152.508681,10.0739662 C151.814507,10.0739662 151.222873,9.81993208 150.734049,9.31214542 C150.244683,8.80435875 150,8.18448163 150,7.45166914 L150,7.45166914 Z" id="Fill-16" fill="#250844"></path><polygon id="Fill-18" fill="#250844" points="164.718334 21.143728 158.479456 12.8828826 163.25673 12.8828826 167.124965 18.1312913 171.064324 12.8828826 175.984131 12.8828826 169.567016 21.143728 177 30.8828826 172.222726 30.8828826 167.124965 24.155871 161.901955 30.8828826 157 30.8828826"></polygon><path d="M180,28.3647283 C180,27.6934492 180.245053,27.1119408 180.737161,26.6202032 C181.228697,26.1290373 181.816882,25.8828826 182.499714,25.8828826 C183.183404,25.8828826 183.771017,26.1290373 184.262839,26.6202032 C184.754375,27.1119408 185,27.699453 185,28.3827396 C185,29.0783197 184.754375,29.6718356 184.262839,30.1632874 C183.783026,30.6427316 183.195128,30.8828826 182.499714,30.8828826 C181.792291,30.8828826 181.198387,30.6427316 180.719433,30.1632874 C180.23962,29.6838432 180,29.0843235 180,28.3647283" id="Fill-19" fill="#250844"></path><text id="swag-store" opacity="0.717564174" font-family="AvenirNext-Regular, Avenir Next" font-size="14" font-weight="normal" fill="#060606"><tspan x="209" y="27.8828826">swag store</tspan></text><rect id="Rectangle" fill="#0FC2BC" x="196" y="10.8828826" width="2" height="21"></rect></g></g></svg>